<svg width="83" height="43" viewBox="0 0 83 43" fill="none" xmlns="http://www.w3.org/2000/svg">
<path d="M5.01562 8.82031C5.01562 10.2812 5.45312 11.4844 6.32812 12.4297C7.21094 13.3672 8.33203 13.8359 9.69141 13.8359C11.0586 13.8359 12.1797 13.3672 13.0547 12.4297C13.9375 11.4844 14.3789 10.2812 14.3789 8.82031C14.3789 7.35156 13.9375 6.14453 13.0547 5.19922C12.1797 4.25391 11.0586 3.78125 9.69141 3.78125C8.33203 3.78125 7.21094 4.25391 6.32812 5.19922C5.45312 6.14453 5.01562 7.35156 5.01562 8.82031ZM0.796875 8.82031C0.796875 7.60156 1.01172 6.47656 1.44141 5.44531C1.87109 4.40625 2.51172 3.48047 3.36328 2.66797C4.19141 1.88672 5.12891 1.30469 6.17578 0.921875C7.23047 0.539062 8.40234 0.347656 9.69141 0.347656C10.9961 0.347656 12.1758 0.542969 13.2305 0.933594C14.2852 1.31641 15.2266 1.89453 16.0547 2.66797C16.8984 3.48047 17.5352 4.40625 17.9648 5.44531C18.4023 6.47656 18.6211 7.60156 18.6211 8.82031C18.6211 10.0312 18.4023 11.1562 17.9648 12.1953C17.5352 13.2266 16.8984 14.1406 16.0547 14.9375C15.2188 15.7188 14.2695 16.3086 13.207 16.707C12.1523 17.0977 10.9805 17.293 9.69141 17.293C8.41016 17.293 7.24219 17.0977 6.1875 16.707C5.14062 16.3164 4.19922 15.7266 3.36328 14.9375C2.51953 14.1406 1.87891 13.2266 1.44141 12.1953C1.01172 11.1562 0.796875 10.0312 0.796875 8.82031ZM26.4909 7.33203C27.2488 7.33203 27.8113 7.17578 28.1784 6.86328C28.5534 6.54297 28.7409 6.05859 28.7409 5.41016C28.7409 4.79297 28.5456 4.32422 28.155 4.00391C27.7722 3.67578 27.2175 3.51172 26.4909 3.51172H24.5222V7.33203H26.4909ZM20.4089 17V0.605469H26.4675C28.6941 0.605469 30.3386 0.992188 31.4011 1.76562C32.4636 2.53906 32.9948 3.73828 32.9948 5.36328C32.9948 6.26953 32.7605 7.04688 32.2917 7.69531C31.823 8.33594 31.1042 8.87891 30.1355 9.32422C30.5417 9.47266 30.905 9.72266 31.2253 10.0742C31.5534 10.418 31.8386 10.8555 32.0808 11.3867L34.6941 17H30.0652L27.9792 12.2773C27.6433 11.5273 27.2605 11.0117 26.8308 10.7305C26.4011 10.4492 25.7917 10.3086 25.0027 10.3086C24.9402 10.3086 24.8581 10.3125 24.7566 10.3203C24.655 10.3281 24.5769 10.332 24.5222 10.332V17H20.4089ZM39.3998 14H41.7788C42.8413 14 43.5991 13.8516 44.0522 13.5547C44.5053 13.2578 44.7319 12.7656 44.7319 12.0781C44.7319 11.375 44.4897 10.8555 44.0053 10.5195C43.5288 10.1836 42.7788 10.0156 41.7553 10.0156H39.3998V14ZM41.5209 7.08594C42.2631 7.08594 42.8139 6.94531 43.1733 6.66406C43.5405 6.38281 43.7241 5.95703 43.7241 5.38672C43.7241 4.75391 43.5405 4.28516 43.1733 3.98047C42.8061 3.66797 42.2553 3.51172 41.5209 3.51172H39.3998V7.08594H41.5209ZM35.2748 17V0.605469H41.3217C43.478 0.605469 45.103 0.960937 46.1967 1.67188C47.2983 2.375 47.8491 3.42187 47.8491 4.8125C47.8491 5.53906 47.6616 6.17578 47.2866 6.72266C46.9194 7.26953 46.3803 7.70312 45.6694 8.02344C46.8178 8.38281 47.6733 8.91797 48.2358 9.62891C48.7983 10.332 49.0795 11.2227 49.0795 12.3008C49.0795 13.8711 48.5405 15.0469 47.4623 15.8281C46.3842 16.6094 44.7631 17 42.5991 17H35.2748ZM50.8908 17V0.605469H55.1213V17H50.8908ZM57.4598 15.6992V12.0547C58.6942 12.8203 59.7333 13.3555 60.577 13.6602C61.4286 13.9648 62.2528 14.1172 63.0497 14.1172C63.8544 14.1172 64.4637 13.9961 64.8778 13.7539C65.2919 13.5039 65.4989 13.1367 65.4989 12.6523C65.4989 12.2617 65.37 11.9492 65.1122 11.7148C64.8544 11.4727 64.2528 11.1875 63.3075 10.8594C60.9716 10.0391 59.3622 9.20312 58.4794 8.35156C57.6044 7.49219 57.1669 6.39844 57.1669 5.07031C57.1669 3.67188 57.7372 2.53516 58.8778 1.66016C60.0262 0.785156 61.5184 0.347656 63.3544 0.347656C64.2841 0.347656 65.2177 0.460938 66.1552 0.6875C67.0927 0.914062 68.0184 1.24609 68.9325 1.68359V5.04688C67.8309 4.49219 66.8427 4.08203 65.9677 3.81641C65.0927 3.55078 64.2958 3.41797 63.577 3.41797C62.7958 3.41797 62.1981 3.53125 61.7841 3.75781C61.3778 3.98437 61.1747 4.30859 61.1747 4.73047C61.1747 5.07422 61.3583 5.39844 61.7255 5.70312C62.0927 6 62.6473 6.28516 63.3895 6.55859C63.5458 6.62109 63.7841 6.71094 64.1044 6.82812C65.6669 7.40625 66.788 7.90234 67.4677 8.31641C68.1786 8.75391 68.7137 9.31641 69.0731 10.0039C69.4403 10.6914 69.6239 11.4961 69.6239 12.418C69.6239 13.9336 69.0497 15.125 67.9012 15.9922C66.7606 16.8594 65.1747 17.293 63.1434 17.293C62.1278 17.293 61.1434 17.1602 60.1903 16.8945C59.245 16.6289 58.3348 16.2305 57.4598 15.6992ZM16.5586 40.0781C15.5586 40.8281 14.4961 41.3867 13.3711 41.7539C12.2539 42.1133 11.0273 42.293 9.69141 42.293C8.40234 42.293 7.21875 42.0977 6.14062 41.707C5.0625 41.3086 4.12891 40.7344 3.33984 39.9844C2.51172 39.1953 1.87891 38.2734 1.44141 37.2188C1.01172 36.1641 0.796875 35.0312 0.796875 33.8203C0.796875 31.2656 1.64453 29.2109 3.33984 27.6562C5.04297 26.1016 7.29688 25.3242 10.1016 25.3242C11.125 25.3242 12.1367 25.4453 13.1367 25.6875C14.1367 25.9297 15.1562 26.3047 16.1953 26.8125V30.4102C15.1094 29.8555 14.0742 29.4414 13.0898 29.168C12.1055 28.8945 11.1836 28.7578 10.3242 28.7578C8.66797 28.7578 7.36719 29.207 6.42188 30.1055C5.48438 31.0039 5.01562 32.2422 5.01562 33.8203C5.01562 35.3594 5.46484 36.5859 6.36328 37.5C7.26172 38.4062 8.46875 38.8594 9.98438 38.8594C10.3906 38.8594 10.793 38.8164 11.1914 38.7305C11.5898 38.6445 11.9883 38.5195 12.3867 38.3555V36.293H10.125V33.2109H16.5586V40.0781ZM24.8738 32.332C25.6316 32.332 26.1941 32.1758 26.5613 31.8633C26.9363 31.543 27.1238 31.0586 27.1238 30.4102C27.1238 29.793 26.9284 29.3242 26.5378 29.0039C26.155 28.6758 25.6003 28.5117 24.8738 28.5117H22.905V32.332H24.8738ZM18.7917 42V25.6055H24.8503C27.0769 25.6055 28.7214 25.9922 29.7839 26.7656C30.8464 27.5391 31.3777 28.7383 31.3777 30.3633C31.3777 31.2695 31.1433 32.0469 30.6745 32.6953C30.2058 33.3359 29.487 33.8789 28.5183 34.3242C28.9245 34.4727 29.2878 34.7227 29.6081 35.0742C29.9363 35.418 30.2214 35.8555 30.4636 36.3867L33.0769 42H28.448L26.362 37.2773C26.0261 36.5273 25.6433 36.0117 25.2136 35.7305C24.7839 35.4492 24.1745 35.3086 23.3855 35.3086C23.323 35.3086 23.2409 35.3125 23.1394 35.3203C23.0378 35.3281 22.9597 35.332 22.905 35.332V42H18.7917ZM37.0678 33.8203C37.0678 35.2812 37.5053 36.4844 38.3803 37.4297C39.2631 38.3672 40.3842 38.8359 41.7436 38.8359C43.1108 38.8359 44.2319 38.3672 45.1069 37.4297C45.9897 36.4844 46.4311 35.2812 46.4311 33.8203C46.4311 32.3516 45.9897 31.1445 45.1069 30.1992C44.2319 29.2539 43.1108 28.7812 41.7436 28.7812C40.3842 28.7812 39.2631 29.2539 38.3803 30.1992C37.5053 31.1445 37.0678 32.3516 37.0678 33.8203ZM32.8491 33.8203C32.8491 32.6016 33.0639 31.4766 33.4936 30.4453C33.9233 29.4062 34.5639 28.4805 35.4155 27.668C36.2436 26.8867 37.1811 26.3047 38.228 25.9219C39.2827 25.5391 40.4545 25.3477 41.7436 25.3477C43.0483 25.3477 44.228 25.543 45.2827 25.9336C46.3373 26.3164 47.2788 26.8945 48.1069 27.668C48.9506 28.4805 49.5873 29.4062 50.017 30.4453C50.4545 31.4766 50.6733 32.6016 50.6733 33.8203C50.6733 35.0312 50.4545 36.1562 50.017 37.1953C49.5873 38.2266 48.9506 39.1406 48.1069 39.9375C47.2709 40.7188 46.3217 41.3086 45.2592 41.707C44.2045 42.0977 43.0327 42.293 41.7436 42.293C40.4623 42.293 39.2944 42.0977 38.2397 41.707C37.1928 41.3164 36.2514 40.7266 35.4155 39.9375C34.5717 39.1406 33.9311 38.2266 33.4936 37.1953C33.0639 36.1562 32.8491 35.0312 32.8491 33.8203ZM67.7541 25.6055V34.9922C67.7541 37.2891 67.0705 39.082 65.7033 40.3711C64.3439 41.6523 62.4416 42.293 59.9963 42.293C57.5588 42.293 55.6564 41.6523 54.2892 40.3711C52.9298 39.082 52.2502 37.2891 52.2502 34.9922V25.6055H56.3752V34.8281C56.3752 36.1328 56.6877 37.1328 57.3127 37.8281C57.9377 38.5156 58.8439 38.8594 60.0314 38.8594C61.2111 38.8594 62.1095 38.5156 62.7267 37.8281C63.3439 37.1406 63.6525 36.1406 63.6525 34.8281V25.6055H67.7541ZM76.2333 32.4023C77.0067 32.4023 77.5809 32.25 77.9559 31.9453C78.3309 31.6328 78.5184 31.1602 78.5184 30.5273C78.5184 29.9258 78.3231 29.4648 77.9325 29.1445C77.5419 28.8164 76.9833 28.6523 76.2567 28.6523H74.288V32.4023H76.2333ZM70.163 42V25.6055H76.2098C78.4286 25.6055 80.0692 26.0078 81.1317 26.8125C82.202 27.6172 82.7372 28.8477 82.7372 30.5039C82.7372 32.207 82.1669 33.4805 81.0263 34.3242C79.8856 35.168 78.1708 35.5898 75.8817 35.5898H74.288V42H70.163Z" fill="white"/>
</svg>
